<svg version="1.1" xmlns="http://www.w3.org/2000/svg" xmlns:xlink="http://www.w3.org/1999/xlink" width="1117.02279" height="625.46627" viewBox="0,0,1117.02279,625.46627"><g transform="translate(168.01488,110.77933)"><g data-paper-data="{&quot;isPaintingLayer&quot;:true}" fill="#a8a8a8" fill-rule="nonzero" stroke="none" stroke-width="0.5" stroke-linecap="butt" stroke-linejoin="miter" stroke-miterlimit="10" stroke-dasharray="" stroke-dashoffset="0" style="mix-blend-mode: normal"><path d="M-43.31677,124.46457l3.08466,0.45116l-2.2385,-1.15784zM-102.83011,192.17804l-0.06045,0.0626l24.97134,-5.61154l-0.11473,-1.98318l2.72073,-4.57313l0.50208,-1.85769l-14.65715,0.47985l-3.36856,0.82495zM-168.01488,189.06465l0.5627,-1.94177v-9.02109l-0.45473,-0.98667l0.45473,-2.77154l0,-4.64577l-0.15576,-0.61332l0.15576,-0.993v-0.40454l0.39063,-3.90625l0.56327,-1.77027l0.28789,-1.83527l0.79834,-2.09564l0.03363,-1.4133l1.05048,-1.47686l0.00077,-0.00241l0.00536,-0.00621l0.74229,-1.04357l1.86299,-2.94973l0.87433,-0.89862l2.04544,-2.87565l1.85415,-1.13226l1.51502,-1.55711l3.25745,-1.35727l1.07004,-0.65344l3.28925,-1.16294l2.86482,-1.19368l1.0001,0.2024l4.74963,-1.16318l34.83723,-29.09483l-8.05131,-0.69011l-26.40872,-1.88634l-1.71648,0.44778l-3.33358,-1.17656l-0.23269,-0.04018l-0.91732,-0.36571l-6.22409,-2.19674l-0.54627,-0.50241l-0.68941,-0.27485l-4.67525,-4.65908l-0.72686,-0.6685l-0.13697,-0.19234l-2.50404,-2.49537l-0.33965,-1.7411l-1.58075,-2.7663l-1.10347,-0.953l-0.50158,-1.85584l-0.11075,-0.19381l-1.59889,-3.58538l-1.88959,-8.81809l2.1803,-11.14375l1.40374,-1.39733l0.51677,-1.91205l8.59375,-7.42187l8.59375,-2.73437l3.90625,-0.39062l0.22323,0l1.86017,-0.48526l1.37491,0.48526h65.5417l1.68828,0.16883l1.69559,0.06124l8.05243,1.10006l2.16983,-6.75509l1.00735,-0.79075l0.36312,-0.87082l4.57594,-3.00626l2.98543,-2.34351l0.9808,-0.26219l0.94803,-0.62283l4.17431,-0.74647l2.60921,-0.69749l1.83328,-0.09694l0.26065,-0.04661l0.38934,0.01224l0.04253,-0.00225l7.42612,-8.64814l-1.49101,-0.45865l-1.09734,-0.92941l-1.17296,-0.50287l-2.42778,-2.54681l-3.96674,-3.35968l-0.31879,-1.13598l-1.12154,-1.17653l-0.44153,-2.61926l-71.60939,-9.9623l-1.29732,-0.31459l-0.28246,-0.04133l-0.21438,-0.07915l-2.021,-0.49008l-2.34333,-1.12124l-3.88138,-1.43302l-0.90605,-0.85769l-1.00423,-0.48051l-2.43498,-2.77512l-3.90104,-3.6928l-0.22367,-1.00809l-0.92941,-1.05924l-0.91927,-7.2728l-1.17064,-5.27612l0.36107,-1.1288l-0.14862,-1.17579l2.11551,-4.97317l2.23342,-6.98216l1.1074,-0.87147l0.4042,-0.9502l4.51042,-2.91736l2.90129,-2.28317l1.07516,-0.28881l1.04759,-0.67758l4.07795,-0.69925l2.50882,-0.67393l2.07654,-0.11233l0.22524,-0.03862l0.28525,0.01101l1.33297,-0.07211l146.09849,6.67042l4.47256,-3.66979l-0.49234,-2.91275l-1.1204,-6.33146l0.03441,-0.09345l-0.0166,-0.09819l2.26796,-6.01656l2.88711,-7.84146l0.09432,-0.06784l0.0315,-0.08356l5.24238,-3.70975l3.85002,-2.76918l0.09225,-0.02055l0.08434,-0.05968l5.06861,-1.08847l3.55723,-0.7926l0.14074,-0.00153l0.05069,-0.01088l1.34238,-0.00423l2.3917,-0.02595l12.09352,1.07697l1.13833,-0.93402l0.33698,-0.22439l0.29498,-0.2773l30.69266,-23.56834l0.47006,-0.29156l0.41934,-0.36072l10,-7l0.41897,-0.23494l0.93906,-0.87879l1.77849,-0.64507l0.28761,-0.16128l1.12923,-0.35262l7.47923,-2.71277l2.52108,0.63441l8.77523,0.89492l2.24876,1.87919l0.97397,0.24509l3.98635,3.90002l4.27936,3.57607l0.34133,0.94456l2.09479,2.04942l1.76857,8.64163l0.88351,2.44494l-1.95071,7.71316l-0.23785,1.15885l-0.13169,0.3023l-0.46386,1.83412l-0.78041,1.02229l-0.19183,0.44038l-3.75532,6.70593l118.04475,10.51233l11.61316,-4.64526l1.73801,-0.50135l0.19947,-0.09634l0.92204,-0.22717l0.91241,-0.2632l0.22094,-0.01604l1.75636,-0.43273l35,-5l3.92223,-0.16573l0.20532,0.03443l1.73562,-0.20677l3.949,1.16009l3.00413,0.5038l1.08875,0.69856l2.85277,0.83805l1.74538,2.1122l3.87009,2.48312l1.96999,4.58436l1.95141,2.36154l0.57872,3.52633l0.13777,0.3206l108.35898,9.64978l70.00996,-6.05855l1.08034,0.01442l1.07507,-0.10751h7l3.90625,0.39063l8.59375,2.73438l0.42702,0.36879l1.52611,0.41246l3.07736,3.56326l3.56326,3.07736l0.41246,1.52611l0.36879,0.42702l0.86766,2.72694l43.47491,3.87161l1.23973,0.23648l0.21177,0.01912l0.18208,0.05601l2.22262,0.42397l2.32933,0.97625l3.88566,1.19526l1.01265,0.85768l1.08969,0.4567l1.22081,1.25995l170.7973,16.53639l1.81888,0.36149l0.79652,0.11655l0.24494,0.09043l0.99009,0.19677l2.86102,1.22507l4.36405,1.61122l0.49656,0.47005l0.56861,0.24348l2.90506,3.04478l4.27606,4.0478l0.12544,0.56538l0.53195,0.55754l1.30577,7.72513l1.27982,5.76819l-0.19944,0.6235l0.1091,0.64547l-2.08406,5.52871l-2.38698,7.46224l-0.60557,0.47655l-0.20427,0.54191l-4.80637,3.40121l-3.3071,2.60252l-0.59737,0.16047l-0.55814,0.39497l-4.54829,0.97673l-3.00572,0.8074l-1.00798,0.05453l-0.25528,0.05482l-0.805,0.00254l-1.85175,0.10017l-238.19187,-10.87513l20.75243,2.01858l3.85008,0.76696l0.64374,0.27598l2.21166,0.35589l2.90896,1.83942l2.5243,1.08222l1.23343,1.29391l2.93061,1.85311l0.98776,2.25738l2.68305,2.8146l0.41464,2.45975l144.63628,20.12181l1.31204,0.31816l0.2974,0.04389l0.2204,0.08168l1.98533,0.48143l2.35686,1.12772l3.8937,1.44294l0.89304,0.84742l0.99139,0.47436l2.44491,2.78643l3.90747,3.7079l0.21966,0.99574l0.91705,1.04516l0.92111,7.28738l1.16739,5.29189l-0.35774,1.11371l0.14669,1.16052l-2.12127,4.9867l-2.24639,6.99343l-1.09372,0.85855l-0.39915,0.93832l-4.52306,2.92553l-2.91591,2.28894l-1.06176,0.28383l-1.03373,0.66862l-4.09274,0.70179l-2.52413,0.67475l-2.04001,0.10787l-0.23166,0.03972l-0.30039,-0.01159l-1.34819,0.07129l-36.54303,-1.71295l0.11465,0.42421l1.10825,1.18476l1.12416,7.07516l0.96419,3.5675l35.67043,4.70328l3.82167,0.89791l1.92079,0.90228l3.48948,1.11029l1.34267,1.15958l1.40962,0.66216l2.13733,2.40111l3.70413,3.19902l0.37347,1.38182l1.33488,1.49962l0.90941,6.80423l1.2885,4.76744l-0.4358,1.61246l0.22128,1.6556l-1.90065,4.5581l-1.79107,6.62697l-1.51946,1.31226l-0.5509,1.32115l-4.09053,2.68736l-2.43287,2.10111l-1.48408,0.47221l-1.48273,0.97411l-3.60468,0.64461l-2.02226,0.64345l-3.90625,0.39063l-43.5795,0l-0.07349,0.47562l0.37331,3.25347l-1.35182,3.07917l-0.80768,5.22705l-2.82375,3.0446l-1.03519,2.35794l-2.77442,1.74962l-1.08822,1.17333l-2.62431,1.16789l-3.11773,1.96612l-2.02779,0.32377l-0.46939,0.20889l-0.176,0.03757l0.20418,2.23056l-1.8026,3.86253l-1.53039,5.99648l-2.16646,1.92496l-0.53376,1.14373l51.75684,7.0024l3.81861,0.91082l1.87994,0.89086l3.44963,1.09761l1.37799,1.19008l1.442,0.68333l2.1014,2.37688l3.67237,3.17159l0.38234,1.41466l1.36498,1.54392l0.88112,6.76665l1.27781,4.7279l-0.44687,1.65342l0.22116,1.6984l-1.90015,4.51389l-1.78038,6.58742l-1.55966,1.34698l-0.56856,1.35063l-4.06443,2.65059l-2.4011,2.07368l-1.52059,0.48382l-1.5251,0.99458l-3.56565,0.6252l-1.98241,0.63077l-3.90625,0.39063h-52.99893l-142.05229,0.01218l58.41881,8.03008l0.74364,-0.02645l2.74455,0.1762l1.81352,-0.11793l3.233,1.14134l36.50211,5.01747l0.35587,0.08568l0.36524,0.02418l257,43l3.78823,1.02988l1.94977,0.99983l3.50684,1.27341l1.23881,1.16015l1.32928,0.68165l2.09702,2.52709l3.62293,3.39288l0.305,1.34061l1.22621,1.47769l0.67955,6.89897l1.11056,4.88138l-0.47935,1.52673l0.15686,1.59251l-2.08574,4.55092l-2.07662,6.61402l-1.50259,1.19556l-0.57282,1.24985l-4.24044,2.57991l-2.56968,2.04462l-1.44062,0.39528l-1.44996,0.88216l-3.69319,0.52902l-2.11308,0.57979l-3.91881,0.23308l-136.99963,-5.51894l0.09967,0.08608l0.56968,2.1078l1.99044,2.63278l0.31138,5.88396l0.61013,2.25746l194.41416,41.07341l1.01999,0.03036l1.88917,0.87571l1.01007,0.32119l1.41282,0.80192l5.98998,2.7766l0.8537,1.41691l6.46046,8.49421l0.13708,2.45586l0.2753,0.45691l0.08634,6.0222l0.33564,6.01346l-0.24262,0.47507l0.03526,2.45943l-5.84969,8.92582l-0.75237,1.47322l-5.78081,3.1893l-1.35319,0.8989l-0.9851,0.39114l-1.8232,1.00587l-1.01536,0.10172l-20.82499,5.95l-3.86327,0.69753l-0.50535,-0.01504l-0.49212,0.11589l-3.9247,0.08988l-182,-14l-0.86431,-0.1541l-0.87696,-0.04143l-29.85533,-4.4168l-62.33521,-4.03609l4.94298,4.26894l3.90625,14.45313l-3.90625,14.45313l-8.59375,7.42188l-8.59375,2.73438l-3.90625,0.39063h-198l-1.03556,-0.10356l-1.04058,0.0172l-226.96373,-18.91364h-44.96014l-3.90625,-0.39062l-8.59375,-2.73437l-8.59375,-7.42187l-3.90625,-14.45312l1.56579,-5.79342l-3.21481,-0.47432l-2.85502,-0.71732l-2.40156,-0.0456l-4.18648,-2.94762l-2.46694,-1.2055l-1.16859,-1.35421l-1.46256,-1.02976l-1.44225,-2.33644l-3.34502,-3.87633l-0.28154,-2.38544l-0.99459,-2.77065l-1,-4l-0.56844,-3.88436l0.3857,-6.10698l-68.79029,3.86773l-40.96036,3.52347l-32.73754,14.41653l-2.10287,0.68556l-1.09684,0.38469l-0.13804,0.0179l-0.39465,0.12866l-3.44642,0.36935l-4.96431,0.64364l-0.28642,-0.08093l-0.26978,0.02891l-4.36299,-1.3379l-6.00804,-1.69756l-0.16484,-0.19533l-0.32022,-0.09819l-5.13663,-6.36791l-4.03423,-4.78037l-0.04928,-0.28199l-0.17973,-0.22281l-0.01032,-0.06791l-2.81617,-2.12909l-5.07116,-3.67071l-1.17432,-3.21932l-2.29288,-4.01254l-1.20043,-3.73769l-3,-14l-0.20822,-1.86096l-0.17219,-0.42838l0.07051,-0.4804l-0.12662,-1.13164l0.44591,-4.58452l-1.29177,0.10519l-1.08303,-0.13843l-1.80935,0.04829l-1.06362,-0.42189l-12.93804,-2.9857l-3.71838,-1.25898l-1.94017,-1.14946l-3.17309,-0.85759l-1.80799,-2.09346l-0.83758,-0.49623l-2.26693,-3.09847l-2.50938,-2.9056l-0.29518,-0.92771l-1.63331,-2.23242l-0.12213,-3.28466l-0.68376,-2.14895l-0.39062,-3.90625v-5l0.02871,-0.28714l-0.49932,-1.96841l2.8589,-7.9291l0.7367,-2.31536l0.16843,-0.19503l0.08741,-0.24242l1.65683,-1.77722l5.5092,-6.37908l1.96041,-0.52984l0.23618,-0.1658l11.08973,-6.23798l2.00278,-4.5259l3.17915,-7.57608l0.24396,-0.15949l0.09014,-0.20369l5.32071,-3.33365l3.84943,-2.51657l0.23272,-0.04108l0.21951,-0.13753l4.98051,-0.78028l3.44826,-0.60862l0.3593,0.01211l0.12153,-0.01904l1.19641,0.06345l2.24627,0.07569l2.30417,0.3091l-4.7218,-4.07792l-3.90625,-14.45312l3.90625,-14.45312l8.59375,-7.42187l8.59375,-2.73437l3.90625,-0.39062l22.5969,0l-49.76636,-25l-45.83055,0l-3.90625,-0.39062l-0.56961,-0.18124l-2.1343,-0.11617l-3.20518,-1.58275l-2.68466,-0.85421l-1.27493,-1.10107l-3.01657,-1.48961l-1.24997,-2.19512l-3.05228,-2.63606l-1.40143,-5.18531l-1.70474,-2.99377l0.03285,-3.19223l-0.83293,-3.08182l0.89886,-3.32578l0.05527,-5.37107l2.29305,-3.31771l0.27666,-1.02363l-0.39884,-0.46181l-0.95991,-3.01685l-2.50206,-6.03682l0.45764,-2.23964l-0.12067,-1.20668l0,-10.8801zM71.32956,340.1368l-4.13958,1.60747l0.54246,0.07277z"></path></g></g></svg>