<svg version="1.1" xmlns="http://www.w3.org/2000/svg" xmlns:xlink="http://www.w3.org/1999/xlink" width="278.2716" height="288.37256" viewBox="0,0,278.2716,288.37256"><g transform="translate(-75.76591,-48.18581)"><g data-paper-data="{&quot;isPaintingLayer&quot;:true}" fill="#ff0000" fill-rule="nonzero" stroke="none" stroke-width="0.5" stroke-linecap="butt" stroke-linejoin="miter" stroke-miterlimit="10" stroke-dasharray="" stroke-dashoffset="0" style="mix-blend-mode: normal"><path d="M200.93564,169.34257c0.39915,-2.03285 0.86558,-4.05844 1.24987,-6.08613c0.94454,-4.98391 3.24643,-19.96421 3.9435,-24.67006c3.26681,-22.05392 6.8364,-44.05508 10.0076,-66.05008c0.45674,-3.16791 1.40809,-6.24476 2.06835,-9.37659c0.50604,-2.40029 -0.09671,-5.26334 1.36839,-7.23082c2.47379,-3.32205 5.64506,-8.24515 9.75119,-7.70164c4.32771,0.57285 6.39522,6.18876 8.34124,10.09648c2.1859,4.3894 2.04912,9.62754 3.76818,14.21991c2.26311,6.04577 5.78834,11.54559 8.41815,17.44111c0.16511,14.24985 1.64285,28.21075 2.19019,42.41435c0.17127,4.44438 0.5631,10.30452 0.42483,15.62662c3.19967,-1.50044 6.25535,-1.16502 9.84072,-3.10286c4.21997,-2.28084 8.18182,-5.01123 12.3233,-7.43169c9.53828,-5.57459 19.55345,-10.56138 29.03704,-16.22284c3.36723,-2.01015 6.29822,-4.76817 9.84548,-6.44026c2.62563,-1.23765 5.69773,-1.20103 8.43206,-2.17528c1.91861,-0.68361 3.59749,-1.91553 5.44649,-2.76969c1.83888,-0.84949 7.27654,-3.34917 10.28548,-4.12526c3.0653,-0.79063 6.43528,-3.65039 9.24183,-2.18603c3.8033,1.98443 4.74532,7.14801 7.11798,10.72202c-1.27149,3.93746 -1.96735,8.10989 -3.81447,11.81238c-2.27375,4.55765 -5.61646,8.49848 -8.43484,12.74098c-9.89569,14.89593 -19.73422,29.28209 -31.57947,42.75951c-2.92273,3.32546 -12.10917,13.96797 -15.96796,16.93055c-3.00198,2.30477 -6.75047,3.49873 -9.78141,5.76528c-0.37915,0.28353 -0.04044,0.93595 -0.09423,1.42413c3.22603,0.99608 6.17787,2.73318 9.2575,4.11955c7.62348,3.4319 10.8458,4.45161 17.03747,8.56863c7.4869,4.97825 14.06194,10.98698 20.94526,16.73393c4.53622,4.57555 9.7888,7.64222 14.24576,12.23487c1.38569,1.42788 3.49656,2.45701 4.07658,4.36032c1.10289,3.61908 3.2756,8.55285 0.70444,11.32831c-3.26762,3.52725 -9.3137,2.5147 -14.08432,3.11467c-6.94916,0.87395 -11.41693,-0.17314 -17.9955,-1.06636c-2.95774,-0.4016 -6.01651,-0.32096 -8.87769,-1.17133c-5.12429,-1.52299 -9.97196,-3.85879 -14.91296,-5.89947c-3.16761,-1.30826 -6.47898,-2.3672 -9.40859,-4.14559c-0.1316,-0.07989 -0.25724,-0.16697 -0.37791,-0.26007c-0.40277,1.56158 -0.80351,3.12563 -0.95766,4.71636c-0.77161,7.9627 0.64683,16.02619 0,24c-0.70626,8.70654 -3.52215,17.33729 -4.99525,25.94506c0.00546,1.1497 0.0452,7.72401 0.02555,9.3814c-0.02931,2.47301 0.59197,5.05448 -0.13533,7.41831c-2.45202,7.96946 -5.22696,13.64377 -14.91786,10.63373c-3.41008,-1.05918 -5.82365,-4.15498 -8.50435,-6.51387c-2.50917,-2.20796 -5.14968,-4.38744 -7.02678,-7.15284c-2.66426,-3.92507 -4.10264,-8.56323 -6.44218,-12.69009c-2.20784,-3.89454 -5.21517,-7.32685 -7.18471,-11.34716c-2.26711,-4.62773 -3.4747,-9.70792 -5.45981,-14.46345c-1.42023,-3.40228 -3.32993,-6.58631 -4.74771,-9.98962c-2.14484,-5.14858 -3.35783,-10.68733 -5.85471,-15.67469c-1.61184,-3.21955 -3.83017,-6.13734 -5.20251,-9.46603c-1.0096,-2.44886 -0.98652,-5.22761 -1.88291,-7.72014c-0.12424,-0.34546 -0.28277,-0.68154 -0.46302,-1.01134c-2.07887,3.1919 -4.39667,6.22441 -6.58161,9.34555c-6.13818,8.37077 -13.79633,18.00786 -19.24221,26.8871c-2.54205,4.1447 -4.58773,8.57425 -6.92172,12.83958c-0.6576,1.20174 -1.10725,2.56891 -2.05244,3.56049c-2.84857,2.98841 -6.40104,5.25344 -9.22224,8.2677c-1.42441,1.52189 -2.26533,3.4999 -3.41752,5.23702c-0.80051,1.2069 -1.48894,2.50274 -2.44031,3.59467c-3.33701,3.83003 -12.13967,12.76922 -18.12873,8.96594c-4.95274,-3.14518 -6.29111,-21.57016 -5.036,-27.13917c1.21106,-5.37357 3.91915,-10.29734 6.01209,-15.39258c5.29366,-12.88734 10.88468,-25.83787 17.44441,-38.13732c4.6167,-8.65629 9.8698,-16.99278 13.96029,-25.90979c1.08663,-2.36879 1.72434,-4.93149 2.7247,-7.33434c-8.35741,0.99167 -11.89192,0.40414 -23.32714,-0.52772c-3.60255,-0.29357 -7.26385,-0.18289 -10.80577,-0.90355c-8.24176,-1.67694 -15.98964,-5.35318 -24.22823,-7.04563c-4.92894,-1.01255 -10.06366,-0.9642 -14.92503,-2.263c-2.04042,-0.54513 -3.52712,-2.37315 -5.47582,-3.18744c-2.39202,-0.99953 -5.1366,-1.05577 -7.45501,-2.21585c-2.02139,-1.01146 -3.40298,-3.01279 -5.33594,-4.18443c-4.73677,-2.87112 -12.88079,-2.89549 -10.61622,-12.7463c0.94369,-4.105 5.34091,-6.79917 9.02063,-8.84887c2.17313,-1.21049 4.98437,-0.04208 7.45533,-0.32868c1.36522,-0.15835 2.63517,-0.83833 4,-1c9.04837,-1.07183 19.02541,-0.08162 28.11774,0.04065c3.22478,1.02991 6.34216,2.66981 9.71501,2.95935c1.99267,0.17106 4.00993,-0.19901 6,0c1.36755,0.13675 2.63767,0.81849 4,1c2.91027,0.38776 5.94321,-0.50367 8.80677,0.14444c1.45394,0.32907 2.55287,1.64216 4,2c1.06233,0.26269 2.18308,-0.16567 3.27685,-0.20063c3.80443,-0.1216 7.65924,-0.46287 11.41831,0.13533c1.77275,0.28211 3.27292,1.5107 5,2c1.79063,0.50731 3.72058,-0.13533 5.58169,-0.13533c5,0 10,0 15,0h2c0,0 0.56636,0 1.38782,0.15564zM203.45456,183.16884c-1.92576,1.01809 -3.90674,1.01809 -3.90674,1.01809c-5,0 -12,0 -17,0c-0.97241,0 -7.64138,0.04082 -8.41831,-0.13533c-1.75063,-0.3969 -3.23218,-1.68848 -5,-2c-4.9687,-0.87557 -10.27123,0.96771 -15.30484,-0.06531c-1.46028,-0.29968 -2.56701,-1.58921 -4,-2c-2.30537,-0.66087 -4.81165,0.42655 -7.19323,0.14444c-1.36483,-0.16167 -2.63245,-0.86325 -4,-1c-1.99007,-0.19901 -4.01224,0.22097 -6,0c-3.23028,-0.3591 -7.26851,-1.97827 -10.28499,-3.04065c-6.71138,0.13545 -14.00292,-0.70062 -20.80933,-0.25839c1.34686,0.27781 2.73437,0.45105 3.99586,0.97491c1.63994,0.68102 2.80497,2.36813 4.52418,2.81256c4.25668,1.1004 8.7648,0.86946 13.07497,1.737c8.09372,1.62908 15.68558,5.28831 23.77177,6.95437c8.75744,1.80436 18.25178,0.77449 27.08303,2.05588c6.68278,0.96965 13.33952,2.11093 20.00928,3.16639c0.55557,3.84194 2.09817,7.66797 1.66672,11.52582c-0.2343,2.09499 -2.60759,3.3496 -3.5417,5.2394c-1.19427,2.41614 -1.67497,5.13591 -2.79779,7.58607c-4.24268,9.25815 -9.65203,17.93584 -14.45106,26.91822c-6.36402,11.91158 -11.57452,24.41511 -16.83028,36.8412c-1.74988,4.13721 -4.07032,8.09634 -5.12963,12.46172c-0.08873,0.36567 -0.13657,0.73617 -0.15507,1.11011c0.94817,-1.55975 1.90147,-3.11605 3.1325,-4.45166c2.64265,-2.86716 5.97881,-5.01752 8.77776,-7.7323c4.04805,-3.92632 4.9991,-10.12816 7.94954,-14.93416c5.67815,-9.24919 13.41461,-19.0254 19.83409,-27.77867c1.19277,-1.70407 12.4478,-18.33665 14.66465,-19.30039c13.45637,-5.84996 12.39194,3.17882 16.16923,10.37362c0.60279,1.14817 1.67442,2.0437 2.12149,3.26098c0.98211,2.6741 1.03361,5.64521 2.11709,8.27986c1.24117,3.01809 3.33956,5.61441 4.79749,8.53397c1.37742,2.75833 5.93456,15.81987 6.14529,16.32531c1.40915,3.37985 3.31248,6.53939 4.71859,9.92051c1.86112,4.47524 2.94233,9.2735 5.07389,13.62643c1.8539,3.78592 4.74619,6.98011 6.81529,10.65284c2.06179,3.65976 3.26412,7.79085 5.55782,11.30991c0.7954,1.22034 1.90567,2.18129 3.03072,3.13064c0.03804,-3.34235 0.40107,-6.91663 0.41052,-9.36391c1.40846,-8.62694 4.31964,-17.354 5.00475,-26.05494c0.62797,-7.97531 -0.74615,-16.03487 0,-24c0.34759,-3.71053 1.22623,-7.35443 2,-11c0.61578,-2.90121 0.01177,-6.59167 2.16639,-8.62976c3.65425,-3.45661 12.02874,-2.41485 15.99854,-0.2232c1.81806,1.00371 2.73837,3.20869 4.49949,4.30925c2.05301,1.28296 4.49265,1.80538 6.73711,2.71269c4.31503,1.74433 8.48655,3.8943 12.94134,5.24225c4.39461,1.32973 9.0749,1.51379 13.65848,1.78118c0.04813,0.00281 0.09629,0.00533 0.14447,0.00758c-1.99278,-1.57221 -3.9346,-3.20303 -5.73368,-4.98828c-6.27641,-5.21972 -12.25311,-10.71735 -19.05474,-15.26607c-5.25107,-3.51175 -8.38936,-4.47468 -14.96253,-7.43137c-2.25703,-1.01523 -20.87329,-9.26408 -21.00951,-9.4554c-2.27559,-3.19624 -1.1819,-8.02935 0,-11.77065c0.52337,-1.65674 3.08804,-1.60849 4.53186,-2.57497c1.36729,-0.91525 0.41426,-3.55871 1.64091,-4.65529c3.66165,-3.27338 8.35959,-5.19649 12.21859,-8.23472c2.3207,-1.82711 4.22336,-4.13331 6.23617,-6.29492c6.53602,-7.01924 14.19285,-15.56903 19.9704,-23.09008c6.21214,-8.08679 12.58913,-18.4712 18.24601,-26.92494c1.53117,-2.2882 3.09524,-4.56162 4.60986,-6.86483c-2.21536,1.11879 -4.43539,2.22444 -6.76739,3.05922c-2.44312,0.87456 -5.21917,0.72156 -7.56794,1.82472c-2.97775,1.39858 -5.33752,3.86048 -8.15452,5.55974c-9.49839,5.72958 -19.65138,10.76013 -29.23817,16.34228c-9.99674,5.82086 -10.47629,7.39705 -18.97353,10.09111c-6.06221,1.92203 -11.92193,5.71717 -18.27686,5.4734c-9.03196,-0.34645 -7.89107,-11.00356 -7.89107,-16.32539c0,-18.83486 -2.06783,-37.47246 -1.80429,-56.29782c-1.52895,-2.3722 -3.45339,-5.71822 -5.3028,-9.43917c-0.00371,0.02121 -0.00743,0.04241 -0.01117,0.06361c-0.47506,2.69346 -1.54267,5.26169 -1.99282,7.95942c-0.53496,3.20599 -0.51585,6.48355 -0.95457,9.70413c-2.37149,17.40878 -5.25002,34.84485 -8.02884,52.19657c-0.6543,4.08563 -1.2651,8.17989 -2.0432,12.24376c-0.67274,3.51361 -1.93573,6.99282 -1.86231,10.5695c0,0 0,7.5 -7.5,7.5c-1.73472,0 -3.06821,-0.40123 -4.09326,-1.01809z"></path><path d=""></path></g></g></svg>